<?xml version="1.0" encoding="utf-8"?>
<!-- Generator: Adobe Illustrator 25.4.1, SVG Export Plug-In . SVG Version: 6.00 Build 0)  -->
<svg version="1.1" id="Layer_1" xmlns="http://www.w3.org/2000/svg" xmlns:xlink="http://www.w3.org/1999/xlink" x="0px" y="0px"
	 viewBox="0 0 189 72.4" style="enable-background:new 0 0 189 72.4;" xml:space="preserve">
<style type="text/css">
	.st0{fill:#FFFFFF;}
	.st1{fill:url(#SVGID_1_);}
	.st2{fill:url(#SVGID_00000103263854155465901050000006062145591622257311_);}
	.st3{fill:url(#SVGID_00000075851952810589934400000001985912557040634019_);}
	.st4{fill:url(#SVGID_00000098181756314947104700000008207241580610559890_);}
	.st5{fill:url(#SVGID_00000021838063490924764220000009151082502507507884_);}
</style>
<g id="Layer_2_00000019651405401528256580000005645495021500103091_">
	<g id="Layer_1-2">
		<path class="st0" d="M75.8,63.6L74,61.2l-0.3,0.2l-0.2,0.2v1.9h-0.9v-5h0.9v2l0.5-0.5l0.5-0.5L75,59c0.2-0.2,0.3-0.4,0.5-0.5h1.1
			c-0.3,0.4-0.6,0.8-1,1.1l-1,1l2.3,2.9L75.8,63.6z"/>
		<path class="st0" d="M80.3,58.6c0.3,0.1,0.5,0.3,0.7,0.5c0.2,0.2,0.4,0.5,0.5,0.8c0.2,0.7,0.2,1.4,0,2.1c-0.1,0.3-0.3,0.6-0.5,0.9
			c-0.2,0.2-0.4,0.4-0.7,0.5c-0.3,0.1-0.6,0.2-0.9,0.2c-0.3,0-0.6-0.1-0.9-0.2c-0.3-0.1-0.5-0.3-0.7-0.5c-0.2-0.2-0.4-0.5-0.5-0.8
			c-0.2-0.7-0.2-1.4,0-2.1c0.1-0.3,0.3-0.6,0.5-0.8c0.2-0.2,0.4-0.4,0.7-0.5c0.3-0.1,0.6-0.2,0.9-0.2C79.7,58.5,80,58.5,80.3,58.6z
			 M79.9,62.8c0.2-0.1,0.3-0.2,0.4-0.4c0.1-0.2,0.2-0.4,0.3-0.6c0.1-0.2,0.1-0.5,0.1-0.7c0-0.2,0-0.5-0.1-0.7
			c-0.1-0.2-0.2-0.4-0.3-0.6c-0.1-0.2-0.3-0.3-0.4-0.4c-0.2-0.1-0.4-0.1-0.6-0.1c-0.2,0-0.4,0-0.6,0.1c-0.2,0.1-0.3,0.2-0.4,0.4
			c-0.1,0.2-0.2,0.4-0.3,0.6C78,60.6,78,60.8,78,61c0,0.3,0,0.5,0.1,0.7c0.1,0.2,0.1,0.4,0.3,0.6C78.7,62.9,79.4,63,79.9,62.8z"/>
		<path class="st0" d="M85.4,63.6l-1.4-2h-0.8v2h-0.9v-5h2.1c0.2,0,0.4,0,0.7,0.1c0.2,0.1,0.4,0.2,0.5,0.3c0.2,0.1,0.3,0.3,0.4,0.5
			c0.1,0.2,0.1,0.4,0.1,0.6c0,0.2,0,0.3-0.1,0.5c-0.1,0.2-0.1,0.3-0.2,0.5c-0.1,0.1-0.2,0.2-0.4,0.3c-0.1,0.1-0.3,0.2-0.4,0.2l1.4,2
			L85.4,63.6z M85,60.6c0.2-0.1,0.3-0.3,0.3-0.5c0-0.2-0.1-0.4-0.3-0.5c-0.2-0.1-0.4-0.2-0.7-0.2h-1.1v1.4h1.1
			C84.5,60.8,84.8,60.7,85,60.6L85,60.6z"/>
		<path class="st0" d="M86.9,63.5v-5h3.5v0.8h-2.6v1.2h2.5v0.8h-2.5v1.3h2.7v0.8L86.9,63.5z"/>
		<path class="st0" d="M91.7,63.5h-0.9l1.9-5h1l1.9,5h-0.9l-0.4-1.1h-2.2L91.7,63.5z M93.2,59.5l-0.8,2H94L93.2,59.5z"/>
		<path class="st0" d="M98.4,63.5v-5h0.8v4.2h2.5v0.8L98.4,63.5z"/>
		<path class="st0" d="M102.4,63.5v-5h0.8v5H102.4z"/>
		<path class="st0" d="M105.2,59.4v1.3h2.3v0.8h-2.3v2.1h-0.9v-5h3.5v0.8L105.2,59.4z"/>
		<path class="st0" d="M108.5,63.5v-5h3.5v0.8h-2.6v1.2h2.5v0.8h-2.5v1.3h2.7v0.8L108.5,63.5z"/>
		<path class="st0" d="M112.8,63.5v-5h0.9v4.2h2.5v0.8L112.8,63.5z"/>
		<path class="st0" d="M119.7,58.6c0.3,0.1,0.5,0.3,0.7,0.5c0.2,0.2,0.4,0.5,0.5,0.8c0.2,0.7,0.2,1.4,0,2.1
			c-0.1,0.3-0.3,0.6-0.5,0.8c-0.2,0.2-0.4,0.4-0.7,0.5c-0.3,0.1-0.6,0.2-0.9,0.2c-0.3,0-0.7-0.1-1-0.2c-0.3-0.1-0.5-0.3-0.7-0.5
			c-0.2-0.2-0.4-0.5-0.5-0.8c-0.2-0.7-0.2-1.4,0-2.1c0.1-0.3,0.3-0.6,0.5-0.8c0.2-0.2,0.4-0.4,0.7-0.5c0.3-0.1,0.7-0.2,1-0.2
			C119.1,58.4,119.4,58.5,119.7,58.6z M119.3,62.8c0.2-0.1,0.3-0.2,0.4-0.4c0.1-0.2,0.2-0.4,0.3-0.6c0.1-0.2,0.1-0.5,0.1-0.7
			c0-0.2,0-0.5-0.1-0.7c-0.1-0.2-0.1-0.4-0.3-0.6c-0.1-0.2-0.3-0.3-0.4-0.4c-0.2-0.1-0.4-0.1-0.6-0.1c-0.2,0-0.4,0-0.6,0.1
			c-0.2,0.1-0.3,0.2-0.4,0.4c-0.1,0.2-0.2,0.4-0.3,0.6c-0.1,0.2-0.1,0.5-0.1,0.7c0,0.2,0,0.5,0.1,0.7c0.1,0.2,0.1,0.4,0.3,0.6
			c0.1,0.2,0.3,0.3,0.4,0.4c0.2,0.1,0.4,0.1,0.6,0.1C119,62.9,119.2,62.8,119.3,62.8z"/>
		<path class="st0" d="M124.7,63.6l-2-3.6v3.6h-0.9v-5h1.1l2,3.6v-3.6h0.9v5L124.7,63.6z"/>
		<path class="st0" d="M130.1,63.5V63c-0.1,0.2-0.3,0.3-0.5,0.4c-0.2,0.1-0.5,0.2-0.8,0.2c-0.3,0-0.6-0.1-0.9-0.2
			c-0.3-0.1-0.5-0.3-0.7-0.5c-0.2-0.2-0.4-0.5-0.5-0.8c-0.1-0.3-0.2-0.7-0.2-1.1c0-0.4,0-0.7,0.2-1.1c0.1-0.3,0.2-0.6,0.4-0.8
			c0.2-0.2,0.4-0.4,0.7-0.5c0.3-0.1,0.7-0.2,1-0.2c0.6,0,1.1,0.2,1.5,0.6c0.2,0.2,0.3,0.3,0.4,0.5c0.1,0.2,0.2,0.4,0.2,0.5h-1
			c0-0.1-0.1-0.2-0.1-0.3c-0.1-0.1-0.1-0.2-0.2-0.3c-0.1-0.1-0.2-0.2-0.3-0.2c-0.2-0.1-0.3-0.1-0.5-0.1c-0.2,0-0.4,0-0.6,0.1
			c-0.2,0.1-0.3,0.2-0.4,0.4c-0.1,0.2-0.2,0.4-0.3,0.6c-0.1,0.5-0.1,1,0,1.5c0.1,0.2,0.2,0.4,0.3,0.6c0.1,0.2,0.3,0.3,0.4,0.4
			c0.2,0.1,0.4,0.1,0.6,0.1c0.3,0,0.7-0.1,0.9-0.4c0.1-0.1,0.2-0.2,0.2-0.4c0.1-0.1,0.1-0.3,0.1-0.4h-1.2v-0.8h2.1v2.6L130.1,63.5z"
			/>
		<path class="st0" d="M134.1,63.5v-5h0.9v4.2h2.5v0.8L134.1,63.5z"/>
		<path class="st0" d="M138,63.5v-5h3.5v0.8h-2.6v1.2h2.5v0.8h-2.5v1.3h2.7v0.8L138,63.5z"/>
		<path class="st0" d="M142.8,63.5h-0.9l1.9-5h1l1.9,5h-0.9l-0.4-1.1h-2.2L142.8,63.5z M144.3,59.5l-0.8,2h1.6L144.3,59.5z"/>
		<path class="st0" d="M150.2,63.6l-1.4-2H148v2h-0.9v-5h2.1c0.2,0,0.4,0,0.7,0.1c0.2,0.1,0.4,0.2,0.5,0.3c0.2,0.1,0.3,0.3,0.4,0.5
			c0.1,0.2,0.1,0.4,0.1,0.6c0,0.2,0,0.3-0.1,0.5c-0.1,0.2-0.1,0.3-0.2,0.5c-0.1,0.1-0.2,0.2-0.4,0.3c-0.1,0.1-0.3,0.2-0.4,0.2l1.4,2
			L150.2,63.6z M149.7,60.6c0.2-0.1,0.3-0.3,0.3-0.5c0-0.2-0.1-0.4-0.3-0.5c-0.2-0.1-0.4-0.2-0.7-0.2H148v1.4h1.1
			C149.3,60.8,149.5,60.7,149.7,60.6L149.7,60.6z"/>
		<path class="st0" d="M154.6,63.6l-2-3.6v3.6h-0.9v-5h1.1l2,3.6v-3.6h0.9v5L154.6,63.6z"/>
		<path class="st0" d="M156.7,63.5v-5h0.9v5H156.7z"/>
		<path class="st0" d="M161.4,63.6l-2-3.6v3.6h-0.9v-5h1.1l2,3.6v-3.6h0.9v5L161.4,63.6z"/>
		<path class="st0" d="M166.8,63.5V63c-0.1,0.2-0.3,0.3-0.5,0.4c-0.2,0.1-0.5,0.2-0.8,0.2c-0.3,0-0.6-0.1-0.9-0.2
			c-0.3-0.1-0.5-0.3-0.7-0.5c-0.2-0.2-0.4-0.5-0.5-0.8c-0.1-0.3-0.2-0.7-0.2-1.1c0-0.4,0.1-0.7,0.2-1.1c0.1-0.3,0.2-0.6,0.5-0.8
			c0.2-0.2,0.4-0.4,0.7-0.5c0.6-0.2,1.3-0.2,1.8,0c0.2,0.1,0.5,0.2,0.6,0.4c0.2,0.2,0.3,0.3,0.4,0.5c0.1,0.2,0.2,0.4,0.2,0.5h-1
			c0-0.1-0.1-0.2-0.1-0.3c-0.1-0.1-0.1-0.2-0.2-0.3c-0.1-0.1-0.2-0.2-0.4-0.2c-0.1-0.1-0.3-0.1-0.5-0.1c-0.2,0-0.4,0-0.6,0.1
			c-0.2,0.1-0.3,0.2-0.4,0.4c-0.1,0.2-0.2,0.4-0.3,0.6c-0.1,0.5-0.1,1,0,1.5c0.1,0.2,0.1,0.4,0.3,0.6c0.1,0.2,0.3,0.3,0.4,0.4
			c0.2,0.1,0.4,0.1,0.6,0.1c0.2,0,0.4,0,0.5-0.1c0.1-0.1,0.3-0.2,0.4-0.3c0.1-0.1,0.2-0.3,0.2-0.4c0.1-0.1,0.1-0.3,0.1-0.4h-1.2
			v-0.8h2.1v2.6L166.8,63.5z"/>
		<path class="st0" d="M170.9,63.5v-5h3.5v0.8h-2.6v1.2h2.5v0.8h-2.5v1.3h2.7v0.8L170.9,63.5z"/>
		<path class="st0" d="M178,63.5l-1.2-1.8l-1.2,1.8h-1l1.7-2.5l-1.5-2.3h1l1,1.5l1-1.5h1l-1.5,2.3l1.7,2.6H178z"/>
		<path class="st0" d="M182.2,58.7c0.2,0.1,0.4,0.2,0.5,0.3c0.1,0.1,0.3,0.3,0.4,0.5c0.2,0.4,0.2,0.8,0,1.2
			c-0.1,0.2-0.2,0.4-0.4,0.5c-0.2,0.1-0.3,0.3-0.5,0.3c-0.2,0.1-0.4,0.1-0.7,0.1h-1.2v1.8h-0.9v-5h2.1
			C181.7,58.6,182,58.6,182.2,58.7z M181.7,60.9c0.1,0,0.2-0.1,0.3-0.1c0.1-0.1,0.2-0.2,0.2-0.2c0.1-0.2,0.1-0.5,0-0.7
			c-0.1-0.1-0.1-0.2-0.2-0.2c-0.1-0.1-0.2-0.1-0.3-0.1c-0.1,0-0.2,0-0.3,0h-1.1V61h1.1C181.5,61,181.6,60.9,181.7,60.9L181.7,60.9z"
			/>
		<path class="st0" d="M186.9,58.6c0.3,0.1,0.5,0.3,0.7,0.5c0.2,0.2,0.4,0.5,0.5,0.8c0.2,0.7,0.2,1.4,0,2.1
			c-0.1,0.3-0.3,0.6-0.5,0.8c-0.2,0.2-0.4,0.4-0.7,0.5c-0.6,0.3-1.3,0.3-1.9,0c-0.3-0.1-0.5-0.3-0.7-0.5c-0.2-0.2-0.4-0.5-0.5-0.8
			c-0.2-0.7-0.2-1.4,0-2.1c0.1-0.3,0.3-0.6,0.5-0.8c0.2-0.2,0.4-0.4,0.7-0.5C185.6,58.4,186.3,58.4,186.9,58.6z M186.5,62.8
			c0.2-0.1,0.3-0.2,0.4-0.4c0.1-0.2,0.2-0.4,0.3-0.6c0.1-0.2,0.1-0.5,0.1-0.7c0-0.2,0-0.5-0.1-0.7c-0.1-0.2-0.1-0.4-0.3-0.6
			c-0.1-0.2-0.3-0.3-0.4-0.4c-0.2-0.1-0.4-0.1-0.6-0.1c-0.2,0-0.4,0-0.6,0.1c-0.2,0.1-0.3,0.2-0.4,0.4c-0.1,0.2-0.2,0.4-0.3,0.6
			c-0.1,0.2-0.1,0.5-0.1,0.7c0,0.2,0,0.5,0.1,0.7c0.1,0.2,0.1,0.4,0.3,0.6c0.1,0.2,0.3,0.3,0.4,0.4
			C185.7,62.9,186.1,62.9,186.5,62.8L186.5,62.8z"/>
		<path class="st0" d="M76.7,20.3v1.4h-3.1c-0.4,0-0.9-0.1-1.2-0.4c-0.3-0.4-0.4-0.9-0.4-1.4v-6.1h4.5v1.4h-3.1v4.6
			c0,0.2,0,0.3,0.1,0.4c0.1,0.1,0.2,0.1,0.3,0.1H76.7z M77.4,13.2h1.4v3.6H80v-3.6h1.4v10H80v-5h-1.2v5h-1.4V13.2z"/>
		<path class="st0" d="M85.5,13.8v-1.3h1.4v1.3h2.3v1.4H83v-1.4H85.5z M83.5,18.1c0-0.4,0.1-0.7,0.2-1.1c0.1-0.3,0.3-0.6,0.5-0.9
			c0.2-0.2,0.5-0.4,0.8-0.6c0.7-0.3,1.5-0.3,2.2,0c0.3,0.1,0.6,0.3,0.8,0.6c0.2,0.2,0.4,0.5,0.5,0.9c0.1,0.3,0.2,0.7,0.2,1
			c0,0.4-0.1,0.7-0.2,1.1c-0.1,0.3-0.3,0.6-0.6,0.9c-0.2,0.2-0.5,0.4-0.8,0.6c-0.3,0.1-0.7,0.2-1,0.2c-0.3,0-0.7-0.1-1-0.2
			c-0.3-0.1-0.6-0.3-0.9-0.6c-0.2-0.2-0.4-0.5-0.6-0.9C83.6,18.8,83.5,18.4,83.5,18.1L83.5,18.1z M84.8,18.1c0,0.4,0.1,0.7,0.3,1
			c0.2,0.3,0.6,0.4,0.9,0.4c0.3,0,0.7-0.1,0.9-0.4c0.2-0.3,0.4-0.6,0.3-1c0-0.4-0.1-0.7-0.3-1c-0.2-0.3-0.6-0.4-0.9-0.4
			c-0.4,0-0.7,0.1-0.9,0.4C85,17.4,84.9,17.7,84.8,18.1L84.8,18.1z M86.6,22.5c0,0.2,0,0.5,0,0.7c0,0.2,0.1,0.3,0.2,0.4
			c0.1,0.1,0.2,0.2,0.3,0.2c0.2,0,0.4,0.1,0.6,0.1H92v1.4h-4.4c-0.4,0-0.7,0-1.1-0.1c-0.3-0.1-0.5-0.2-0.7-0.4
			c-0.2-0.2-0.3-0.5-0.4-0.8c-0.1-0.4-0.1-0.9-0.1-1.3v-1.3h1.4L86.6,22.5z M90.4,13.2h1.4v3.4h1.5V18h-1.4v3.4h-1.4L90.4,13.2z"/>
		<path class="st0" d="M100,13.5v6.2h-3.9c-0.3,0-0.5,0-0.7-0.1c-0.2,0-0.4-0.2-0.5-0.3c-0.1-0.2-0.2-0.3-0.3-0.5
			c-0.1-0.3-0.1-0.6-0.1-0.8v-4.4H100z M96,14.9v3c0,0.1,0,0.3,0.1,0.4c0.1,0.1,0.2,0.1,0.4,0.1h2.2v-3.5H96z M98.2,22.5
			c0,0.2,0,0.5,0.1,0.7c0,0.2,0.1,0.3,0.2,0.4c0.1,0.1,0.2,0.2,0.3,0.2c0.2,0,0.4,0.1,0.6,0h4.3v1.4h-4.5c-0.4,0-0.7,0-1.1-0.1
			c-0.3-0.1-0.5-0.2-0.7-0.4c-0.2-0.2-0.4-0.5-0.4-0.8c-0.1-0.4-0.1-0.9-0.1-1.3v-1.8h1.4L98.2,22.5z M102,13.2h1.4v8.1H102V13.2z"
			/>
		<path class="st0" d="M112.3,22.6c-0.2-0.1-0.3-0.2-0.5-0.1h-5.3v-1.4h3.1v-1.9h-4.3v-1.4h7.2v-2.6c0-0.2,0-0.4-0.1-0.6
			c-0.1-0.1-0.2-0.1-0.5-0.1h-5.3v-1.4h5.3c0.3,0,0.7,0,1,0.1c0.2,0,0.5,0.1,0.6,0.3c0.2,0.2,0.3,0.4,0.3,0.6c0.1,0.3,0.1,0.7,0.1,1
			v2.6h1.3v1.4h-4.3v1.9h0.8c0.3,0,0.7,0,1,0.1c0.2,0,0.5,0.1,0.6,0.3c0.2,0.2,0.3,0.4,0.3,0.6c0.1,0.3,0.1,0.7,0.1,1v2.6h-1.4v-2.5
			C112.4,23,112.4,22.8,112.3,22.6z"/>
		<path class="st0" d="M78.6,40.6h1.8v2.1H70.1v-2.1h1.6V35h-1.6v-2h10.2v1.6h2.4v-2.1h2.2v10.9h-2.2v-2.8h-2.6v-2.2h2.6v-1.6h-2.6
			V35h-1.5V40.6z M76.4,35h-2.5v5.6h2.5V35z M76,47.8c0-0.6,0.1-1.2,0.3-1.8c0.2-0.5,0.5-1,0.9-1.4c0.4-0.4,0.9-0.7,1.4-0.9
			c1.1-0.4,2.3-0.4,3.4,0c0.5,0.2,1,0.5,1.4,0.9c0.4,0.4,0.7,0.9,0.9,1.4c0.4,1.1,0.4,2.4,0,3.6c-0.2,0.5-0.5,1-0.9,1.4
			c-0.4,0.4-0.9,0.7-1.4,0.9c-1.1,0.4-2.3,0.4-3.4,0c-0.5-0.2-1-0.5-1.4-0.9c-0.4-0.4-0.7-0.9-0.9-1.4C76.1,49,76,48.4,76,47.8z
			 M78.1,47.8c0,0.6,0.2,1.3,0.6,1.7c0.4,0.4,1,0.6,1.5,0.6c0.6,0,1.1-0.2,1.5-0.6c0.4-0.5,0.7-1.1,0.6-1.7c0-0.3-0.1-0.7-0.2-1
			c-0.1-0.3-0.3-0.5-0.5-0.7c-0.2-0.2-0.4-0.4-0.7-0.5c-0.3-0.1-0.6-0.2-0.8-0.2c-0.6,0-1.1,0.2-1.6,0.6
			C78.3,46.5,78.1,47.2,78.1,47.8L78.1,47.8z"/>
		<path class="st0" d="M93.2,32.9c0,0.7-0.1,1.4-0.2,2.1c-0.1,0.7-0.3,1.3-0.5,2c0.2,0.4,0.4,0.8,0.7,1.2c0.3,0.4,0.6,0.7,0.9,1.1
			c0.3,0.3,0.6,0.6,1,0.9c0.3,0.3,0.7,0.5,1,0.7l-1.4,1.9c-0.3-0.2-0.5-0.4-0.8-0.6c-0.3-0.3-0.6-0.5-0.9-0.8
			c-0.3-0.3-0.6-0.7-0.9-1s-0.6-0.7-0.8-1.1c-0.4,0.7-0.8,1.4-1.3,2c-0.5,0.7-1.1,1.3-1.7,1.9l-1.5-1.8c1.2-1.1,2.2-2.4,2.9-3.9
			c0.7-1.6,1.1-3.3,1.1-5L93.2,32.9z M93.3,47.6c0-0.6,0.1-1.2,0.3-1.8c0.4-1,1.2-1.9,2.3-2.3c1.1-0.4,2.3-0.4,3.4,0
			c0.5,0.2,1,0.5,1.4,0.9c0.4,0.4,0.7,0.9,0.9,1.4c0.2,0.6,0.3,1.2,0.3,1.8c0,0.6-0.1,1.2-0.3,1.8c-0.2,0.5-0.5,1-0.9,1.4
			c-0.4,0.4-0.9,0.7-1.4,0.9c-1.1,0.4-2.3,0.4-3.4,0c-0.5-0.2-1-0.5-1.4-0.9c-0.4-0.4-0.7-0.9-0.9-1.4
			C93.4,48.8,93.3,48.2,93.3,47.6z M95.4,47.6c-0.1,0.6,0.2,1.3,0.6,1.8c0.4,0.4,1,0.6,1.5,0.6c0.6,0,1.1-0.2,1.5-0.6
			c0.4-0.5,0.7-1.1,0.6-1.7c0-0.3,0-0.7-0.2-1c-0.1-0.3-0.3-0.5-0.5-0.7c-0.2-0.2-0.4-0.4-0.7-0.5c-0.3-0.1-0.6-0.2-0.8-0.2
			c-0.6,0-1.1,0.2-1.5,0.7C95.6,46.4,95.4,47,95.4,47.6L95.4,47.6z M96.8,32.4h2.1v3.9h1.8v-3.8h2.1v10.7h-2.1v-4.6h-1.8v4.2h-2.1
			V32.4z"/>
		<path class="st0" d="M109.2,33.3v-2h2.2v2h3.6v2.2h-9.6v-2.2H109.2z M106.2,39.9c0-0.6,0.1-1.1,0.3-1.6c0.2-0.5,0.5-0.9,0.8-1.3
			c0.4-0.4,0.8-0.6,1.3-0.8c1.1-0.4,2.3-0.4,3.4,0c0.5,0.2,0.9,0.5,1.3,0.8c0.4,0.4,0.6,0.8,0.8,1.3c0.2,0.5,0.3,1.1,0.3,1.6
			c0,0.6-0.1,1.1-0.3,1.6c-0.2,0.5-0.5,0.9-0.8,1.3c-0.4,0.4-0.8,0.6-1.3,0.8c-0.5,0.2-1.1,0.3-1.6,0.3c-0.6,0-1.1-0.1-1.6-0.3
			c-0.5-0.2-0.9-0.5-1.3-0.8c-0.4-0.4-0.7-0.8-0.9-1.3C106.3,41,106.2,40.4,106.2,39.9L106.2,39.9z M108.4,39.9
			c0,0.5,0.2,1.1,0.5,1.5c0.4,0.4,0.9,0.6,1.4,0.6c0.5,0,1.1-0.2,1.4-0.6c0.7-0.9,0.7-2.1,0-3c-0.4-0.4-0.9-0.6-1.4-0.6
			c-0.5,0-1.1,0.2-1.4,0.6C108.5,38.8,108.3,39.3,108.4,39.9L108.4,39.9z M117,51.2v-3.3c0-0.3,0-0.5-0.2-0.8
			c-0.2-0.2-0.4-0.2-0.7-0.2h-7.4v-2.2h8.4c0.6-0.1,1.2,0.2,1.6,0.6c0.3,0.6,0.5,1.2,0.4,1.9v3.9H117z M119.2,37.2h2.3v2.1h-2.3v4.5
			H117V32.4h2.2V37.2z"/>
		<path class="st0" d="M138,40.7v2.1h-15.5v-2.1H138z M131.5,32.5c-0.1,0.4-0.2,0.8-0.3,1.2c0.3,0.5,0.7,0.9,1.1,1.3
			c0.4,0.4,0.9,0.8,1.4,1.1c0.5,0.3,1,0.6,1.6,0.8c0.5,0.2,1.1,0.4,1.6,0.6l-0.8,2c-0.6-0.1-1.1-0.3-1.6-0.5
			c-0.6-0.2-1.1-0.5-1.6-0.9c-0.5-0.3-1-0.7-1.5-1.1c-0.4-0.4-0.9-0.8-1.2-1.2c-0.7,0.9-1.5,1.7-2.4,2.3c-1,0.7-2.1,1.3-3.3,1.7
			l-1-1.9c0.7-0.2,1.4-0.5,2-0.9c0.6-0.4,1.2-0.8,1.7-1.3c0.5-0.5,1-1,1.3-1.7c0.4-0.6,0.6-1.2,0.8-1.9L131.5,32.5z M126.8,45.9h6.9
			v-2h2.2v8h-8.3c-0.5,0-1,0-1.5-0.1c-0.4-0.1-0.7-0.2-0.9-0.5c-0.3-0.3-0.4-0.6-0.5-1c-0.1-0.5-0.2-1-0.2-1.6v-4.9h2.2L126.8,45.9z
			 M133.7,49.6V48h-6.9v0.5c0,0.3,0,0.6,0.2,0.9c0.1,0.2,0.4,0.2,0.8,0.2L133.7,49.6z"/>
		<path class="st0" d="M142.4,35.8h4v-3.1h2.2v10h-5.2c-0.5,0-1,0-1.5-0.1c-0.4-0.1-0.7-0.3-1-0.5c-0.3-0.3-0.4-0.6-0.5-1
			c-0.1-0.5-0.2-1-0.2-1.6v-6.8h2.2L142.4,35.8z M146.4,40.5v-2.6h-4v1.2c0,0.2,0,0.5,0,0.7c0,0.1,0.1,0.3,0.1,0.4
			c0.1,0.1,0.2,0.2,0.3,0.2c0.2,0,0.4,0,0.6,0L146.4,40.5z M151.2,51.2v-3.6c0-0.3,0-0.5-0.2-0.8c-0.2-0.2-0.4-0.2-0.6-0.2H143v-2.2
			h8.4c0.6-0.1,1.2,0.1,1.6,0.6c0.3,0.6,0.5,1.2,0.4,1.9v4.2L151.2,51.2z M151.2,32.4h2.2v3.9h2.3v2.2h-2.3v4.6h-2.2V32.4z"/>
		<path class="st0" d="M166.1,33v6h-6.2v1c0,0.3,0,0.6,0.2,0.8c0.1,0.1,0.4,0.2,0.8,0.2h5.9v2.1h-6.6c-0.4,0-0.8-0.1-1.2-0.2
			c-0.3-0.1-0.6-0.2-0.8-0.5c-0.2-0.3-0.4-0.6-0.4-0.9c-0.1-0.4-0.1-0.9-0.1-1.4v-3.4h6.2v-1.8h-6.2V33H166.1z M171,44.6v6.6h-8
			c-0.7,0.1-1.4-0.2-1.9-0.6c-0.5-0.6-0.7-1.4-0.6-2.2v-3.8H171z M162.8,46.6v1.8c0,0.3,0,0.5,0.2,0.7c0.2,0.1,0.4,0.2,0.6,0.2h5.2
			v-2.7L162.8,46.6z M168.8,32.5h2.2v4.1h2.3v2.2H171v4.7h-2.2L168.8,32.5z"/>
		<path class="st0" d="M179.4,33.9v-2.3h2.2v2.3h4.2V36h-2.7c0.5,0.4,0.9,0.9,1.1,1.5c0.3,0.6,0.4,1.3,0.4,1.9
			c0,0.5-0.1,0.9-0.2,1.4c-0.2,0.4-0.4,0.8-0.6,1.2c-0.3,0.4-0.6,0.7-1,0.9c-0.4,0.3-0.8,0.4-1.2,0.5v2h2c0.7,0,1.3,0,1.9-0.1
			c0.5,0,0.9-0.1,1.3-0.4V32.4h2.2v16.5h-2.2v-1.7c-0.5,0.2-1,0.3-1.6,0.3c-0.6,0-1.1,0-1.6,0h-8.9v-2.1h4.6v-2
			c-0.9-0.2-1.7-0.7-2.2-1.4c-0.6-0.7-0.9-1.7-0.8-2.6c0-0.7,0.1-1.3,0.4-1.9c0.3-0.6,0.6-1.1,1.1-1.5h-2.6v-2.1H179.4z M178.4,39.3
			c0,0.3,0,0.6,0.1,0.9c0.1,0.3,0.2,0.5,0.4,0.7c0.2,0.2,0.4,0.4,0.6,0.5c0.3,0.1,0.5,0.2,0.8,0.2c0.3,0,0.6-0.1,0.8-0.2
			c0.3-0.1,0.5-0.3,0.7-0.5c0.2-0.2,0.3-0.5,0.4-0.7c0.1-0.3,0.2-0.6,0.1-0.9c0-0.3,0-0.6-0.1-0.9c-0.2-0.5-0.6-1-1.1-1.2
			c-0.3-0.1-0.6-0.2-0.8-0.2c-0.3,0-0.6,0.1-0.8,0.2c-0.2,0.1-0.5,0.3-0.6,0.5c-0.2,0.2-0.3,0.5-0.4,0.7
			C178.5,38.7,178.4,39,178.4,39.3L178.4,39.3z"/>
		
			<radialGradient id="SVGID_1_" cx="41.9993" cy="-17.3113" r="23.47" gradientTransform="matrix(0.99 0 0 -0.99 -10.45 45.0983)" gradientUnits="userSpaceOnUse">
			<stop  offset="0" style="stop-color:#FFF100"/>
			<stop  offset="1" style="stop-color:#F8B300"/>
		</radialGradient>
		<path class="st1" d="M61,53c-3.1-1-6.2-1.4-9.5-1.5l0,0c-4.2,0-8.3,0.9-12.1,2.7c-3.1,1.5-6,3.5-8.4,5.9c-2.4-2.4-5.3-4.4-8.4-5.9
			c-3.8-1.8-8-2.7-12.1-2.7l0,0C7.3,51.5,4.1,52,1,53l-1,0.3l2.9,9.2l1-0.3c2.1-0.7,4.3-1,6.5-1l0,0c2.8,0,5.5,0.6,8,1.8
			c3.5,1.7,6.4,4.3,8.6,7.4c0.7,0.9,1.7,1.6,2.8,1.8v0.1H32v-0.1c1.1-0.3,2.1-0.9,2.8-1.8c2.2-3.2,5.2-5.7,8.7-7.4
			c2.5-1.2,5.3-1.8,8-1.8l0,0c2.2,0,4.4,0.3,6.5,1l1,0.3l2.9-9.3L61,53z"/>
		
			<linearGradient id="SVGID_00000139984621275136745180000017871384010331362987_" gradientUnits="userSpaceOnUse" x1="-59.5455" y1="-4.7749" x2="-60.8256" y2="-51.6968" gradientTransform="matrix(0.9996 -2.722377e-02 -2.722377e-02 -0.9996 73.7097 7.573637e-02)">
			<stop  offset="0" style="stop-color:#DC1615"/>
			<stop  offset="1" style="stop-color:#ED6C00"/>
		</linearGradient>
		<polygon style="fill:url(#SVGID_00000139984621275136745180000017871384010331362987_);" points="3.5,10.8 25.2,53.4 13.1,6.5 		
			"/>
		
			<linearGradient id="SVGID_00000049935969051974421680000002938286928493744827_" gradientUnits="userSpaceOnUse" x1="125.6779" y1="229.6797" x2="127.7179" y2="176.6797" gradientTransform="matrix(1 4.000000e-02 4.000000e-02 -1.02 -111.2916 229.3869)">
			<stop  offset="0" style="stop-color:#EA5504"/>
			<stop  offset="1" style="stop-color:#FFF223"/>
		</linearGradient>
		<polygon style="fill:url(#SVGID_00000049935969051974421680000002938286928493744827_);" points="18,4.8 29,54.2 28.7,0 		"/>
		
			<linearGradient id="SVGID_00000034080010342214980000000005432675574505316480_" gradientUnits="userSpaceOnUse" x1="-5379.5361" y1="144.8622" x2="-5380.8164" y2="97.9282" gradientTransform="matrix(-1 -3.000000e-02 3.000000e-02 -1 -5336.1489 -2.1388)">
			<stop  offset="0" style="stop-color:#3162AD"/>
			<stop  offset="1" style="stop-color:#58C4F1"/>
		</linearGradient>
		<polygon style="fill:url(#SVGID_00000034080010342214980000000005432675574505316480_);" points="58.5,10.8 36.8,53.4 48.9,6.5 		
			"/>
		
			<linearGradient id="SVGID_00000012464384328118668120000001288704798536710582_" gradientUnits="userSpaceOnUse" x1="-5182.3003" y1="28.6536" x2="-5180.2603" y2="-24.3464" gradientTransform="matrix(-1 4.000000e-02 -4.000000e-02 -1.02 -5142.7383 229.3869)">
			<stop  offset="0" style="stop-color:#3C992C"/>
			<stop  offset="1" style="stop-color:#DDE207"/>
		</linearGradient>
		<polygon style="fill:url(#SVGID_00000012464384328118668120000001288704798536710582_);" points="44,4.8 33,54.2 33.3,0 		"/>
	</g>
</g>
</svg>
