<svg xmlns="http://www.w3.org/2000/svg" viewBox="0 0 188.28 41.3"><defs><style>.cls-1{fill:#fff;}.cls-2{fill:#26b7bc;}.cls-3{fill:none;}</style></defs><g id="Layer_2" data-name="Layer 2"><g id="Layer_1-2" data-name="Layer 1"><path class="cls-1" d="M43.57,34.24v1.5H38.68v2.31H36.93V35.74H31.67v-1.5Zm-6-2.85a4,4,0,0,1-1.64,1c-.87.4-1.75.79-2.8,1.21l-.67-1.44c1-.37,2-.83,2.91-1.27S36.7,30,36.7,29.15V28.07h1.8v1.15c0,.88.42,1.29,1.27,1.75a29.86,29.86,0,0,0,2.92,1.27l-.64,1.37c-1.06-.42-2-.88-2.8-1.21-1-.47-1.49-.79-1.59-1Zm-2.54,7.89h7.09v1.5H33.29V36.93h1.76Z"/><path class="cls-1" d="M45.05,29.21h2.62V27.76h1.76v1.45h2.5V30.7H49.47v.83a1.82,1.82,0,0,0,.88,1.66c.58.45,1.28.93,2,1.37l-.93,1.26c-.63-.41-1.21-.82-1.76-1.2a4.07,4.07,0,0,1-1-.88h0a4.18,4.18,0,0,1-1.09,1c-.6.48-1.22,1-1.92,1.45l-1-1.29a24.71,24.71,0,0,0,2.32-1.75,2.1,2.1,0,0,0,.81-1.67v-.81H45.07Zm3.77,10h6.73v1.51H47V36.54H48.8Zm4.76-6.18h-2v-1.5h2V27.87h1.75v9.34H53.58Z"/><path class="cls-1" d="M64,35H57.9V28.64H64Zm-2.57,4.24h6.68v1.51H59.64V36.4h1.75Zm.81-9.14H59.65v3.41h2.54Zm5.53,1.22h1.74v1.54H67.75v4.27H66V27.87h1.75Z"/><path class="cls-1" d="M75.71,35.13c-.43-.36-1-.87-1.39-1.23a3,3,0,0,1-.74-.88h0a2.81,2.81,0,0,1-.68.88c-.37.38-1,1-1.76,1.64l-1.06-1.12c.58-.52,1.19-1.09,1.75-1.68a2.78,2.78,0,0,0,.87-2.23v-2h1.75v1.89a2.67,2.67,0,0,0,.82,2.17c.49.49,1,1,1.56,1.42Zm-2.63,3.71v-.59c0-1.53,1.75-2.47,4.18-2.47s4.2.94,4.2,2.47v.59c0,1.52-1.75,2.46-4.18,2.46s-4.19-.94-4.19-2.46Zm1.75-.45v.31c0,.65,1.18,1.17,2.44,1.17s2.44-.52,2.44-1.17v-.31c0-.66-1.18-1.18-2.44-1.18s-2.45.52-2.45,1.18Zm3.82-7.62h1.06v-2.9h1.68v7.89H79.71V32.34H78.64v2.87H77V28h1.67Z"/><path class="cls-1" d="M83.62,29h5.11v1.49h-3.4v2h3.14v1.47H85.33V36h.51a25.59,25.59,0,0,0,3.5-.21l.17,1.48a26.5,26.5,0,0,1-4,.24H83.62Zm8.1,3.4h1.12V27.85H94.6V40.91H92.84V34H91.72v6.32H90V28.14h1.68Z"/><path class="cls-1" d="M108,34.31V35.8h-4.9v2.27h-1.75V35.8H96.12V34.31Zm-1.68-6v5H97.76v-5Zm-6.81,11h7.07v1.5H97.76V37h1.75Zm0-7.46h5.07v-2H99.53Z"/><path class="cls-1" d="M109,37.14h3.21v-1c-1.57-.26-2.34-1.25-2.34-2.2v-.51c0-1.1,1.05-2.27,3.21-2.27s3.21,1.17,3.21,2.27V34c0,.95-.77,1.94-2.32,2.2v.93a26.6,26.6,0,0,0,3.09-.19l.13,1.49a77.26,77.26,0,0,1-8.19.25Zm3.21-7.88V27.85H114v1.43h2.78v1.48h-7.5V29.28Zm-.69,4.38v.17c0,.5.48,1,1.56,1s1.56-.55,1.56-1v-.17c0-.5-.48-1-1.56-1s-1.56.53-1.56,1Zm7.94-.68h1.81v1.55h-1.81v6.42h-1.76V27.87h1.76Z"/><path class="cls-1" d="M124.41,37.79V33.45h1.76v4.34h1.25V33.45h1.75v4.34h4.69v1.48h-12V37.79Zm5.7-1.61a24.7,24.7,0,0,0,.37-4.86v-.87h-7.19V29h9v1.89a30.29,30.29,0,0,1-.38,5.55Z"/><path class="cls-1" d="M137.85,36.78V35.34h-3.1V33.89h11.94v1.45h-3.05v1.44h1.48v4.33h-1.75V38.19h-7V36.78Zm-1.4-6v-.3c0-1.6,1.75-2.49,4.27-2.49s4.27.88,4.27,2.49v.3c0,1.61-1.75,2.48-4.27,2.48s-4.27-.91-4.27-2.52Zm1.75-.28v.26c0,.64,1,1.07,2.52,1.07s2.52-.43,2.52-1.07v-.26c0-.64-1-1.07-2.52-1.07s-2.52.38-2.52,1Zm1.38,6.23h2.3V35.34h-2.27Z"/><path class="cls-1" d="M147.82,33.64c4.29,0,6.41-.07,8.24-.24l.13,1.47a30.23,30.23,0,0,1-3.56.21v1.7h-1.75V35.11h-3.06Zm.88-2.85V30.4c0-1.36,1.42-2.3,3.28-2.3s3.28.94,3.28,2.3v.39c0,1.36-1.43,2.3-3.28,2.3s-3.32-.94-3.32-2.3Zm3.05,8.51h7.11v1.52h-8.92V37.31h1.75Zm-1.39-8.81v.2c0,.54.67,1,1.62,1s1.61-.42,1.61-1v-.2c0-.52-.66-.94-1.61-.94s-1.65.42-1.65.94Zm3.94,5.06h2.63V27.87h1.75V37.94h-1.75V37H154.3Z"/><path class="cls-1" d="M164.59,31.33v-.44a3.38,3.38,0,0,1,6.67,0v.44a3.38,3.38,0,0,1-6.67,0Zm1.67-.42v.4a1.7,1.7,0,0,0,3.33,0v-.4a1.69,1.69,0,0,0-2-1.32A1.72,1.72,0,0,0,166.26,30.91Zm8.76,4v3.71h-6.46v1h6.86V41h-8.57V37.32h6.46v-1h-6.53v-1.4Zm0-.59h-1.75V27.87H175Z"/><path class="cls-1" d="M177.25,33.64c4.29,0,6.4-.07,8.24-.24l.12,1.47a30.23,30.23,0,0,1-3.56.21v1.7H180.3V35.11h-3.05Zm.87-2.85V30.4c0-1.36,1.43-2.3,3.28-2.3s3.28.94,3.28,2.3v.39c0,1.36-1.43,2.3-3.28,2.3s-3.31-.94-3.31-2.3Zm3.06,8.51h7.1v1.52h-8.91V37.31h1.75Zm-1.39-8.81v.2c0,.54.66,1,1.61,1s1.62-.42,1.62-1v-.2c0-.52-.67-.94-1.62-.94s-1.65.42-1.65.94Zm3.94,5.06h2.58V27.87h1.75V37.94h-1.75V37h-2.58Z"/><path class="cls-1" d="M0,13.93,5.11,9.42c2.16-1.93,3-3,3-4.43a2.7,2.7,0,0,0-2.68-2.7H5.25c-1.61,0-2.62.88-3.79,2.42L.26,3.86C1.53,2,2.86.88,5.33.88a4.1,4.1,0,0,1,4.38,4h0c0,2.06-1.08,3.33-3.56,5.48L2.38,13.69H9.86v1.44H0Z"/><path class="cls-1" d="M13.14,8.15v0c0-3.94,2.37-7.29,6-7.29s5.92,3.3,5.92,7.25h0c0,3.95-2.33,7.3-6,7.3S13.14,12.1,13.14,8.15Zm10.24,0v0c0-3.07-1.69-5.83-4.31-5.83S14.78,5,14.78,8.07h0c0,3.09,1.7,5.85,4.38,5.85s4.24-2.68,4.24-5.77Z"/><path class="cls-1" d="M27.87,13.93,33,9.42C35.14,7.49,35.9,6.4,35.9,5a2.69,2.69,0,0,0-2.67-2.7h-.16c-1.61,0-2.63.88-3.79,2.42l-1.17-.87c1.3-1.87,2.63-3,5.1-3a4.1,4.1,0,0,1,4.38,4h0c0,2.06-1.09,3.33-3.57,5.48l-3.76,3.35h7.47v1.44H27.87Z"/><path class="cls-1" d="M43.38,2.63l-2.62.82-.38-1.29L43.79,1H45v14.2H43.38Z"/><path class="cls-1" d="M49.33,13.05h1.85v2.11H49.33Z"/><path class="cls-2" d="M57.25,3.63l-2.56.63L54,1.63,58.24.34h2.18V15.16H57.25Z"/><path class="cls-2" d="M67,3.63l-2.57.63-.67-2.63L68,.34h2.2V15.16H67Z"/><path class="cls-2" d="M74.44,13.05h1.85v2.11H74.44Z"/><path class="cls-2" d="M79.56,13.21l2-2.33A5.19,5.19,0,0,0,85,12.47c1.52,0,2.47-.74,2.47-2v0c0-1.26-1.08-2-2.63-2a6.13,6.13,0,0,0-2.46.55L80.57,7.7,81,.45h9V3.28H83.74l-.17,2.55a7,7,0,0,1,1.94-.25c2.85,0,5.14,1.38,5.14,4.7h0c0,3.11-2.2,5.09-5.58,5.09A7.59,7.59,0,0,1,79.56,13.21Z"/><path class="cls-2" d="M94.26,13.05h1.86v2.11H94.26Z"/><path class="cls-2" d="M136.44,3.63l-2.57.63-.67-2.63L137.42.34h2.2V15.16h-3.18Z"/><path class="cls-2" d="M146.14,3.63l-2.52.63L143,1.63,147.12.34h2.21V15.16h-3.2Z"/><path class="cls-2" d="M153.65,13.05h1.84v2.11h-1.84Z"/><path class="cls-2" d="M158.78,11.12h0a3.59,3.59,0,0,1,2.35-3.59,3.49,3.49,0,0,1-1.86-3.21h0c0-2.25,2.06-4,5.16-4s5.17,1.75,5.17,4h0a3.49,3.49,0,0,1-1.86,3.21,3.7,3.7,0,0,1,2.37,3.5h0c0,2.74-2.42,4.33-5.68,4.33S158.78,13.69,158.78,11.12Zm8.21-.24v-.05C167,9.69,165.92,9,164.45,9s-2.54.67-2.54,1.81v.05c0,1,1,1.82,2.54,1.82S167,11.9,167,10.88Zm-.44-6.2h0a1.87,1.87,0,0,0-2-1.77h-.12c-1.32,0-2.1.8-2.1,1.7h0a2.13,2.13,0,0,0,4.2,0Z"/><path class="cls-2" d="M173.45,13.05h1.84v2.11h-1.84Z"/><line class="cls-3" x1="116.25" y1="7.85" x2="127.01" y2="7.85"/><rect class="cls-1" x="116.25" y="7.4" width="10.75" height="0.88"/><path class="cls-1" d="M100,4.83h10V6H100ZM108.67.36V1.7c0,.34-.08.57-.08.93a4.89,4.89,0,0,1-.15.93c0,.3-.11.62-.18.88l-1.4-.26c.1-.45.2-.88.26-1.33s.1-.87.13-1.31h-5.93V.36ZM101.33,6.9h7.39v3.84h-7.39Zm1.44,1.17V9.58h4.51V8.07Z"/><path class="cls-1" d="M181.78,5.25c-.45,0-.92.06-1.37.06h-1.36l-.18-1.09c1.22,0,2.46,0,3.69-.15s2.46-.18,3.67-.35l.2,1.07c-.53.07-1.07.14-1.6.18s-1.08.12-1.6.15V6.51h-1.45ZM179.65,2a1.41,1.41,0,0,1,.75-1.3,4.13,4.13,0,0,1,2.07-.45,4.26,4.26,0,0,1,2.1.45A1.47,1.47,0,0,1,185.31,2a1.45,1.45,0,0,1-.74,1.31,4.15,4.15,0,0,1-2.1.45,4,4,0,0,1-2.07-.45A1.38,1.38,0,0,1,179.65,2Zm1,6.13h6.13V7.88h-6.13V6.77h7.5V9.28h-6.07v.35h6.22v1.1H180.6ZM183.89,2a.49.49,0,0,0-.3-.42,3.06,3.06,0,0,0-1.12-.15,2.88,2.88,0,0,0-1.09.15.44.44,0,0,0-.32.41.46.46,0,0,0,.32.43,2.69,2.69,0,0,0,1.09.14,2.83,2.83,0,0,0,1.12-.14.45.45,0,0,0,.31-.4Zm2.82-2h1.42V6.51h-1.42V6.32h-2.12V5.25h2.12Z"/></g></g></svg>